<?xml version="1.0" encoding="utf-8"?>
<!-- Generator: Adobe Illustrator 21.1.0, SVG Export Plug-In . SVG Version: 6.00 Build 0)  -->
<svg version="1.1" id="Layer_1" xmlns="http://www.w3.org/2000/svg" xmlns:xlink="http://www.w3.org/1999/xlink" x="0px" y="0px"
	 viewBox="0 0 80 80" style="enable-background:new 0 0 80 80;" xml:space="preserve">
<g>
	<path d="M70.5,19.1c0.5-0.5,0.4-0.9-0.4-0.9H9.9c-0.7,0-0.8,0.4-0.4,0.9L39,48.6c0.5,0.5,1.3,0.5,1.8,0L70.5,19.1z"/>
	<path d="M55.8,39.2c-0.5,0.5-0.5,1.3,0,1.8l17.4,17.2c0.5,0.5,0.8,0.4,0.8-0.4V22.2c0-0.7-0.4-0.9-0.8-0.4L55.8,39.2z"/>
	<path d="M42.2,52.8c-0.5,0.5-1.3,1.1-1.7,1.5c0,0,0,0-0.5,0c-0.5,0-0.5,0-0.5,0c-0.5-0.4-1.2-1-1.7-1.5l-9.1-9.1
		c-0.5-0.5-1.3-0.5-1.8,0L9.6,60.8c-0.5,0.5-0.4,0.9,0.4,0.9h60c0.7,0,0.8-0.4,0.4-0.9L53.1,43.5c-0.5-0.5-1.3-0.5-1.8,0L42.2,52.8z
		"/>
	<path d="M6.8,21.8C6.4,21.3,6,21.4,6,22.2v35.6c0,0.7,0.4,0.9,0.8,0.4l17.4-17.2c0.5-0.5,0.5-1.3,0-1.8L6.8,21.8z"/>
</g>
</svg>
