<?xml version="1.0" encoding="utf-8"?>
<!-- Generator: Adobe Illustrator 20.0.0, SVG Export Plug-In . SVG Version: 6.00 Build 0)  -->
<svg version="1.1" id="Layer_1" xmlns="http://www.w3.org/2000/svg" xmlns:xlink="http://www.w3.org/1999/xlink" x="0px" y="0px"
	 viewBox="0 0 100 100" style="enable-background:new 0 0 100 100;" xml:space="preserve">
<path d="M48.9,9.4L21,35.7c-0.6,0.6-0.7,1.7-0.1,2.3c0.6,0.6,1.7,0.7,2.3,0.1l25.1-23.6v74.9c0,0.9,0.7,1.6,1.6,1.6s1.6-0.7,1.6-1.6
	c0,0,0,0,0,0V14.4l25.1,23.6c0.7,0.6,1.7,0.6,2.3-0.1c0.6-0.7,0.6-1.7-0.1-2.3L51.1,9.4C50.5,8.9,49.5,8.9,48.9,9.4z"/>
</svg>
