<?xml version="1.0" encoding="utf-8"?>
<!-- Generator: Adobe Illustrator 21.1.0, SVG Export Plug-In . SVG Version: 6.00 Build 0)  -->
<svg version="1.1" id="Layer_1" xmlns="http://www.w3.org/2000/svg" xmlns:xlink="http://www.w3.org/1999/xlink" x="0px" y="0px"
	 viewBox="0 0 200 200" style="enable-background:new 0 0 200 200;" xml:space="preserve">
<g>
	<g>
		<path d="M109.7,172H90c-1.7,0-3.4-0.6-4.7-1.6c-1.4-1.2-2.3-2.7-2.5-4.5L80.7,152c-1.4-0.5-2.7-1-3.9-1.6l-10.5,7.9
			c-1.3,1.1-2.9,1.7-4.7,1.7c-1.9,0-3.6-0.7-5-2.1c-7.7-7-12.7-12-15.1-15.5c-0.9-1.3-1.4-2.8-1.4-4.4c0-1.5,0.5-3.1,1.5-4.4
			c0.9-1.3,2.4-3.3,4.6-6c1.3-1.6,2.4-3,3.2-4.2c-0.8-1.6-1.4-3.2-2-4.8l-13.8-2c-1.8-0.3-3.4-1.2-4.5-2.6c-1-1.3-1.5-2.9-1.5-4.5
			V89.8c0-1.5,0.5-3.1,1.5-4.4c1.4-1.9,3-2.5,4.2-2.7l0.1,0l14.1-2.1c0.5-1.4,1.1-2.8,1.8-4.2c-2.1-2.9-4.8-6.3-7.9-10.1
			c-1.5-1.8-1.8-3.5-1.8-4.7c0-1.4,0.5-2.9,1.5-4.3c1.7-2.4,4.7-5.7,9.2-10.1c6.4-6.3,8.9-7.5,11.2-7.5c1.7,0,3.3,0.6,4.7,1.7
			l10.3,8c1.3-0.6,2.6-1.1,3.9-1.6c0.9-6.9,1.6-11.7,2.4-14.6c0.9-3.4,3.5-5.5,7.1-5.5h19.7c1.7,0,3.4,0.6,4.7,1.6
			c1.4,1.2,2.3,2.7,2.5,4.5l2.1,13.8c1.4,0.5,2.7,1,3.9,1.6l10.5-7.9c1.3-1.1,2.9-1.7,4.7-1.7c1.7,0,3.4,0.6,4.8,1.8l0.2,0.1
			c7.8,7.2,12.8,12.3,15.1,15.6c0.7,0.9,1.4,2.3,1.4,4.4c0,1.5-0.5,3.1-1.5,4.4c-0.9,1.3-2.4,3.3-4.6,6c-1.3,1.6-2.4,3-3.3,4.2
			c0.7,1.6,1.4,3.1,2,4.7L166,83c1.8,0.3,3.3,1.2,4.4,2.6c1,1.3,1.5,2.9,1.5,4.5v19.7c0,1.5-0.5,3.1-1.5,4.4
			c-1.1,1.5-2.6,2.5-4.4,2.7l-14.1,2.1c-0.6,1.5-1.1,2.8-1.7,4.1c2,2.7,4.6,6,7.9,10.1c1.2,1.4,1.8,3,1.8,4.8c0,1.7-0.6,3.2-1.7,4.5
			c-1.8,2.4-4.7,5.6-9.1,9.9c-6.3,6.2-8.9,7.5-11.2,7.5c-1.5,0-3-0.5-4.5-1.4l-0.3-0.2l-10.3-8c-1.3,0.6-2.6,1.1-3.9,1.6
			c-0.9,6.9-1.6,11.7-2.4,14.6C115.9,169.9,113.2,172,109.7,172z M90.6,164h18.5c0.7-2.9,1.5-8.1,2.3-15.5l0.3-2.6l2.5-0.8
			c2.6-0.8,5.1-1.9,7.4-3.1l2.3-1.2l14,10.9c0.8-0.5,2.5-1.8,5.7-5c3.9-3.8,6.6-6.8,8.1-8.8c-4.2-5.1-7.3-9.2-9.4-12.2l-1.4-2
			l1.2-2.2c1.1-2,2.2-4.5,3.2-7.5l0.8-2.3l17.9-2.7V90.8L146.1,88l-0.7-2.4c-0.8-2.6-1.9-5.3-3.4-8l-1.1-2.2l1.4-2
			c1.1-1.5,2.7-3.7,4.9-6.4c1.9-2.4,3.3-4.3,4.2-5.5c-1.5-2-5-6-13.4-13.7l-14.3,10.8l-2.2-1.1c-2.2-1.1-4.7-2.2-7.4-3l-2.3-0.8
			l-2.7-18H90.5c-0.7,2.9-1.5,8.1-2.3,15.5l-0.3,2.6l-2.5,0.8c-2.5,0.8-5.1,1.9-7.4,3.1l-2.3,1.2l-14-10.9c-0.8,0.5-2.5,1.8-5.7,5
			c-3.9,3.8-6.6,6.8-8.1,8.7c3.9,4.7,7,8.8,9.4,12.1l1.4,2l-1.2,2.2c-1.3,2.5-2.4,5-3.1,7.4l-0.7,2.4l-18,2.7v18.5l18,2.6l0.7,2.5
			c0.7,2.6,1.9,5.3,3.3,8l1.2,2.2l-1.5,2c-1.1,1.5-2.7,3.6-4.9,6.4c-2,2.5-3.4,4.3-4.2,5.5c2.2,2.9,6.7,7.5,13.5,13.6L75.9,141
			l2.2,1.1c2.2,1.1,4.7,2.2,7.4,3l2.3,0.8L90.6,164z M137.4,152.1L137.4,152.1L137.4,152.1z M47.5,62.1L47.5,62.1L47.5,62.1z
			 M61.3,47.6L61.3,47.6L61.3,47.6z M62.2,47.5C62.2,47.5,62.2,47.5,62.2,47.5S62.2,47.5,62.2,47.5z M99.8,126.5
			c-7.3,0-13.7-2.6-18.9-7.8c-5.2-5.2-7.8-11.6-7.8-18.9c0-7.3,2.6-13.7,7.8-18.9c5.2-5.2,11.6-7.8,18.9-7.8
			c7.3,0,13.7,2.6,18.9,7.8c5.2,5.2,7.8,11.6,7.8,18.9s-2.6,13.7-7.8,18.9l0,0c0,0,0,0,0,0C113.5,123.9,107.2,126.5,99.8,126.5z
			 M99.8,81.1c-5.2,0-9.5,1.8-13.2,5.5c-3.7,3.7-5.5,8-5.5,13.2c0,5.2,1.8,9.5,5.5,13.2c3.7,3.7,8,5.5,13.2,5.5
			c5.2,0,9.5-1.8,13.2-5.5l0,0c3.7-3.7,5.5-8,5.5-13.2c0-5.2-1.8-9.5-5.5-13.2C109.4,82.9,105,81.1,99.8,81.1z"/>
	</g>
</g>
</svg>
