<?xml version="1.0" encoding="utf-8"?>
<!-- Generator: Adobe Illustrator 22.1.0, SVG Export Plug-In . SVG Version: 6.00 Build 0)  -->
<svg version="1.1" id="Layer_1" xmlns="http://www.w3.org/2000/svg" xmlns:xlink="http://www.w3.org/1999/xlink" x="0px" y="0px"
	 viewBox="0 0 175 175" style="enable-background:new 0 0 175 175;" xml:space="preserve">
<g>
	<path d="M50.9,46.5H37.6c-3,0-5.5,2.5-5.5,5.5v13.3c0,3,2.5,5.5,5.5,5.5h13.3c3,0,5.5-2.5,5.5-5.5V52C56.5,49,54,46.5,50.9,46.5z"
		/>
	<path d="M50.9,75.3H37.6c-3,0-5.5,2.5-5.5,5.5v13.3c0,3,2.5,5.5,5.5,5.5h13.3c3,0,5.5-2.5,5.5-5.5V80.9
		C56.5,77.8,54,75.3,50.9,75.3z"/>
	<path d="M50.9,104.1H37.6c-3,0-5.5,2.5-5.5,5.5V123c0,3,2.5,5.5,5.5,5.5h13.3c3,0,5.5-2.5,5.5-5.5v-13.3
		C56.5,106.6,54,104.1,50.9,104.1z"/>
	<path d="M137.4,46.5H66.4c-3,0-5.5,2.5-5.5,5.5v13.3c0,3,2.5,5.5,5.5,5.5h70.9c3,0,5.5-2.5,5.5-5.5V52
		C142.9,49,140.4,46.5,137.4,46.5z"/>
	<path d="M137.4,75.3H66.4c-3,0-5.5,2.5-5.5,5.5v13.3c0,3,2.5,5.5,5.5,5.5h70.9c3,0,5.5-2.5,5.5-5.5V80.9
		C142.9,77.8,140.4,75.3,137.4,75.3z"/>
	<path d="M137.4,104.1H66.4c-3,0-5.5,2.5-5.5,5.5V123c0,3,2.5,5.5,5.5,5.5h70.9c3,0,5.5-2.5,5.5-5.5v-13.3
		C142.9,106.6,140.4,104.1,137.4,104.1z"/>
</g>
</svg>
