<?xml version="1.0" encoding="utf-8"?>
<!-- Generator: Adobe Illustrator 20.0.0, SVG Export Plug-In . SVG Version: 6.00 Build 0)  -->
<svg version="1.1" id="Layer_1" xmlns="http://www.w3.org/2000/svg" xmlns:xlink="http://www.w3.org/1999/xlink" x="0px" y="0px"
	 viewBox="0 0 100 100" style="enable-background:new 0 0 100 100;" xml:space="preserve">
<path d="M51.1,90.6L79,64.3c0.6-0.6,0.7-1.7,0.1-2.3c-0.6-0.6-1.7-0.7-2.3-0.1L51.6,85.6V10.7C51.6,9.7,50.9,9,50,9
	c-0.9,0-1.6,0.7-1.6,1.6c0,0,0,0,0,0v74.9L23.2,61.9c-0.7-0.6-1.7-0.6-2.3,0.1c-0.6,0.7-0.6,1.7,0.1,2.3l27.9,26.2
	C49.5,91.1,50.5,91.1,51.1,90.6z"/>
</svg>
