<?xml version="1.0" encoding="utf-8"?>
<!-- Generator: Adobe Illustrator 22.1.0, SVG Export Plug-In . SVG Version: 6.00 Build 0)  -->
<svg version="1.1" id="Layer_1" xmlns="http://www.w3.org/2000/svg" xmlns:xlink="http://www.w3.org/1999/xlink" x="0px" y="0px"
	 viewBox="0 0 175 175" style="enable-background:new 0 0 175 175;" xml:space="preserve">
<g>
	<path d="M61.8,40H46.4c-3.5,0-6.4,2.9-6.4,6.4v15.4c0,3.5,2.9,6.4,6.4,6.4h15.4c3.5,0,6.4-2.9,6.4-6.4V46.4
		C68.2,42.9,65.4,40,61.8,40z"/>
	<path d="M95.2,40H79.8c-3.5,0-6.4,2.9-6.4,6.4v15.4c0,3.5,2.9,6.4,6.4,6.4h15.4c3.5,0,6.4-2.9,6.4-6.4V46.4
		C101.6,42.9,98.7,40,95.2,40z"/>
	<path d="M128.6,40h-15.4c-3.5,0-6.4,2.9-6.4,6.4v15.4c0,3.5,2.9,6.4,6.4,6.4h15.4c3.5,0,6.4-2.9,6.4-6.4V46.4
		C135,42.9,132.1,40,128.6,40z"/>
	<path d="M61.8,73.4H46.4c-3.5,0-6.4,2.9-6.4,6.4v15.4c0,3.5,2.9,6.4,6.4,6.4h15.4c3.5,0,6.4-2.9,6.4-6.4V79.8
		C68.2,76.3,65.4,73.4,61.8,73.4z"/>
	<path d="M95.2,73.4H79.8c-3.5,0-6.4,2.9-6.4,6.4v15.4c0,3.5,2.9,6.4,6.4,6.4h15.4c3.5,0,6.4-2.9,6.4-6.4V79.8
		C101.6,76.3,98.7,73.4,95.2,73.4z"/>
	<path d="M128.6,73.4h-15.4c-3.5,0-6.4,2.9-6.4,6.4v15.4c0,3.5,2.9,6.4,6.4,6.4h15.4c3.5,0,6.4-2.9,6.4-6.4V79.8
		C135,76.3,132.1,73.4,128.6,73.4z"/>
	<path d="M61.8,73.4H46.4c-3.5,0-6.4,2.9-6.4,6.4v15.4c0,3.5,2.9,6.4,6.4,6.4h15.4c3.5,0,6.4-2.9,6.4-6.4V79.8
		C68.2,76.3,65.4,73.4,61.8,73.4z"/>
	<path d="M95.2,73.4H79.8c-3.5,0-6.4,2.9-6.4,6.4v15.4c0,3.5,2.9,6.4,6.4,6.4h15.4c3.5,0,6.4-2.9,6.4-6.4V79.8
		C101.6,76.3,98.7,73.4,95.2,73.4z"/>
	<path d="M128.6,73.4h-15.4c-3.5,0-6.4,2.9-6.4,6.4v15.4c0,3.5,2.9,6.4,6.4,6.4h15.4c3.5,0,6.4-2.9,6.4-6.4V79.8
		C135,76.3,132.1,73.4,128.6,73.4z"/>
	<path d="M95.2,106.8H79.8c-3.5,0-6.4,2.9-6.4,6.4v15.4c0,3.5,2.9,6.4,6.4,6.4h15.4c3.5,0,6.4-2.9,6.4-6.4v-15.4
		C101.6,109.6,98.7,106.8,95.2,106.8z"/>
	<path d="M128.6,106.8h-15.4c-3.5,0-6.4,2.9-6.4,6.4v15.4c0,3.5,2.9,6.4,6.4,6.4h15.4c3.5,0,6.4-2.9,6.4-6.4v-15.4
		C135,109.6,132.1,106.8,128.6,106.8z"/>
	<path d="M95.2,106.8H79.8c-3.5,0-6.4,2.9-6.4,6.4v15.4c0,3.5,2.9,6.4,6.4,6.4h15.4c3.5,0,6.4-2.9,6.4-6.4v-15.4
		C101.6,109.6,98.7,106.8,95.2,106.8z"/>
	<path d="M128.6,106.8h-15.4c-3.5,0-6.4,2.9-6.4,6.4v15.4c0,3.5,2.9,6.4,6.4,6.4h15.4c3.5,0,6.4-2.9,6.4-6.4v-15.4
		C135,109.6,132.1,106.8,128.6,106.8z"/>
	<path d="M61.8,73.4H46.4c-3.5,0-6.4,2.9-6.4,6.4v15.4c0,3.5,2.9,6.4,6.4,6.4h15.4c3.5,0,6.4-2.9,6.4-6.4V79.8
		C68.2,76.3,65.4,73.4,61.8,73.4z"/>
	<path d="M61.8,106.8H46.4c-3.5,0-6.4,2.9-6.4,6.4v15.4c0,3.5,2.9,6.4,6.4,6.4h15.4c3.5,0,6.4-2.9,6.4-6.4v-15.4
		C68.2,109.6,65.4,106.8,61.8,106.8z"/>
</g>
</svg>
