<?xml version="1.0" encoding="utf-8"?>
<!-- Generator: Adobe Illustrator 20.0.0, SVG Export Plug-In . SVG Version: 6.00 Build 0)  -->
<svg version="1.1" id="Layer_1" xmlns="http://www.w3.org/2000/svg" xmlns:xlink="http://www.w3.org/1999/xlink" x="0px" y="0px"
	 viewBox="0 0 100 100" style="enable-background:new 0 0 100 100;" xml:space="preserve">
<path d="M90.6,48.9L64.3,21c-0.6-0.6-1.7-0.7-2.3-0.1c-0.6,0.6-0.7,1.7-0.1,2.3l23.6,25.1H10.7C9.7,48.4,9,49.1,9,50
	c0,0.9,0.7,1.6,1.6,1.6c0,0,0,0,0,0h74.9L61.9,76.8c-0.6,0.7-0.6,1.7,0.1,2.3c0.7,0.6,1.7,0.6,2.3-0.1l26.2-27.9
	C91.1,50.5,91.1,49.5,90.6,48.9z"/>
</svg>
