<?xml version="1.0" encoding="utf-8"?>
<!-- Generator: Adobe Illustrator 20.0.0, SVG Export Plug-In . SVG Version: 6.00 Build 0)  -->
<svg version="1.1" id="Layer_1" xmlns="http://www.w3.org/2000/svg" xmlns:xlink="http://www.w3.org/1999/xlink" x="0px" y="0px"
	 viewBox="0 0 100 100" style="enable-background:new 0 0 100 100;" xml:space="preserve">
<path d="M9.4,51.1L35.7,79c0.6,0.6,1.7,0.7,2.3,0.1c0.6-0.6,0.7-1.7,0.1-2.3L14.4,51.6h74.9c0.9,0,1.6-0.7,1.6-1.6s-0.7-1.6-1.6-1.6
	c0,0,0,0,0,0H14.4l23.6-25.1c0.6-0.7,0.6-1.7-0.1-2.3c-0.7-0.6-1.7-0.6-2.3,0.1L9.4,48.9C8.9,49.5,8.9,50.5,9.4,51.1z"/>
</svg>
