<?xml version="1.0" encoding="utf-8"?><svg xmlns="http://www.w3.org/2000/svg" xmlns:xlink="http://www.w3.org/1999/xlink"><symbol viewBox="0 0 80 80" id="icon-facebook" xmlns="http://www.w3.org/2000/svg"><path fill="currentColor" d="M30.9 76.1h14.5V39.7h10.1l1.1-12.2H45.4v-6.9c0-2.9.6-4 3.4-4h7.9V3.9H46.6c-10.8 0-15.7 4.8-15.7 13.9v9.7h-7.6v12.3h7.6v36.3z"/></symbol><symbol viewBox="0 0 80 80" id="icon-google-plus" xmlns="http://www.w3.org/2000/svg"><g fill="currentColor"><path d="M43.7 22.8l-6.5 6.5c-1.8-1.6-3.9-2.7-6.4-3.1-7.4-1.2-14.4 3.4-16 10.8-1.2 5.7.5 10.6 5 14.2 4.6 3.7 9.7 4 14.9 1.6 3-1.4 5-3.7 5.9-7 .1-.3.1-.6.2-1.1H28.4v-9h19.9c1.7 0 1.8 0 1.9 1.6.7 6.7-.4 13-4.9 18.3-4.3 5.5-10.4 7.7-17.3 7.5C16.5 62.7 7.6 55 5.7 43.7c-2.1-12.8 6.7-24.4 18.9-26.4 6.8-1.1 13 .4 18.4 4.8l.7.7zM61.8 42.9h-7.2v-5.7h7.2V30h5.7v7.1h7.2v5.8h-7.1V50h-5.7c-.1-2.3-.1-4.6-.1-7.1z"/></g></symbol><symbol viewBox="0 0 80 80" id="icon-instagram" xmlns="http://www.w3.org/2000/svg"><g fill="currentColor"><path d="M40 15.6c8 0 8.9 0 12 .2 2.9.1 4.5.6 5.5 1 1.5.5 2.4 1.2 3.5 2.2 1 1 1.7 2 2.2 3.4.4 1 .9 2.6 1 5.5.1 3.1.2 4.1.2 12s0 8.9-.2 12c-.1 2.9-.6 4.5-1 5.5C62.7 59 62 59.9 61 61c-1 1-2 1.7-3.4 2.2-1 .4-2.6.9-5.5 1-3.1.1-4.1.2-12 .2s-8.9 0-12-.2c-2.9-.1-4.5-.6-5.5-1C21 62.7 20.1 62 19 61c-1-1-1.7-2-2.2-3.4-.4-1-.9-2.6-1-5.5-.1-3.1-.2-4.1-.2-12s0-8.9.2-12c.1-2.9.6-4.5 1-5.5.5-1.6 1.2-2.5 2.2-3.6 1-1 2-1.7 3.4-2.2 1-.4 2.6-.9 5.5-1 3.2-.2 4.1-.2 12.1-.2m0-5.4c-8.1 0-9.1 0-12.3.2-3.2.1-5.3.6-7.2 1.4-2 .8-3.6 1.8-5.3 3.4-1.7 1.7-2.7 3.3-3.4 5.3-.7 1.9-1.2 4.1-1.4 7.2-.1 3.2-.2 4.2-.2 12.3 0 8.1 0 9.1.2 12.3.1 3.2.6 5.3 1.4 7.2.8 2 1.8 3.6 3.4 5.3 1.7 1.7 3.3 2.7 5.3 3.4 1.9.7 4.1 1.2 7.2 1.4 3.2.1 4.2.2 12.3.2s9.1 0 12.3-.2c3.2-.1 5.3-.6 7.2-1.4 2-.8 3.6-1.8 5.3-3.4 1.7-1.7 2.7-3.3 3.4-5.3.7-1.9 1.2-4.1 1.4-7.2.1-3.2.2-4.2.2-12.3s0-9.1-.2-12.3c-.1-3.2-.6-5.3-1.4-7.2-.8-2-1.8-3.6-3.4-5.3-1.7-1.7-3.3-2.7-5.3-3.4-1.9-.7-4.1-1.2-7.2-1.4-3.2-.1-4.2-.2-12.3-.2z"/><path d="M40 24.7c-8.4 0-15.3 6.8-15.3 15.3S31.6 55.3 40 55.3 55.3 48.4 55.3 40 48.4 24.7 40 24.7zm0 25.2c-5.5 0-9.9-4.4-9.9-9.9s4.4-9.9 9.9-9.9 9.9 4.4 9.9 9.9-4.4 9.9-9.9 9.9z"/><circle cx="55.9" cy="24.1" r="3.6"/></g></symbol><symbol viewBox="0 0 80 80" id="icon-twitter" xmlns="http://www.w3.org/2000/svg"><path fill="currentColor" d="M5.1 61.9C11.4 66 19 68.3 27 68.3c26.6 0 41.6-22.5 40.7-42.6 2.8-2 5.2-4.5 7.1-7.4-2.6 1.1-5.3 1.9-8.2 2.3 3-1.8 5.2-4.6 6.3-7.9-2.8 1.6-5.8 2.8-9.1 3.5-2.6-2.8-6.3-4.5-10.5-4.5-9.2 0-16 8.6-13.9 17.6-11.8-.7-22.4-6.4-29.4-15-3.8 6.4-2 14.8 4.4 19.1-2.3-.1-4.6-.7-6.5-1.8-.2 6.6 4.6 12.8 11.5 14.2-2 .5-4.2.7-6.5.2 1.8 5.7 7.1 9.8 13.4 9.9-6 4.8-13.6 6.9-21.2 6z"/></symbol><symbol viewBox="0 0 100 100" id="icon-ui-arrow-down" xmlns="http://www.w3.org/2000/svg"><path fill="currentColor" d="M48.7 10.4v76.2L31.3 69.1c-.5-.5-1.3-.5-1.8 0s-.5 1.3 0 1.8l19.6 19.6s.1 0 .1.1h.1s.1 0 .1.1H50.8s.1 0 .1-.1h.1s.1 0 .1-.1l19.6-19.6c.2-.2.4-.6.4-.9 0-.3-.1-.6-.4-.9-.5-.5-1.3-.5-1.8 0L51.3 86.6V10.4c0-.7-.6-1.3-1.3-1.3-.7 0-1.3.6-1.3 1.3z"/></symbol><symbol viewBox="0 0 100 100" id="icon-ui-arrow-left" xmlns="http://www.w3.org/2000/svg"><path fill="currentColor" d="M89.6 48.7H13.4l17.4-17.5c.5-.5.5-1.3 0-1.8s-1.3-.5-1.8 0L9.5 49.1s0 .1-.1.1v.1s0 .1-.1.1V50.8s0 .1.1.1v.1s0 .1.1.1l19.6 19.6c.2.2.6.4.9.4.3 0 .6-.1.9-.4.5-.5.5-1.3 0-1.8L13.4 51.3h76.2c.7 0 1.3-.6 1.3-1.3 0-.7-.6-1.3-1.3-1.3z"/></symbol><symbol viewBox="0 0 100 100" id="icon-ui-arrow-right" xmlns="http://www.w3.org/2000/svg"><path fill="currentColor" d="M10.4 51.3h76.2L69.1 68.7c-.5.5-.5 1.3 0 1.8s1.3.5 1.8 0l19.6-19.6s0-.1.1-.1v-.1s0-.1.1-.1v-.1-.1-.1-.1-.1-.1-.1-.1-.1-.1-.1-.1-.1-.1s0-.1-.1-.1V49s0-.1-.1-.1L70.9 29.5c-.2-.2-.6-.4-.9-.4-.3 0-.6.1-.9.4-.5.5-.5 1.3 0 1.8l17.4 17.5H10.4c-.7 0-1.3.6-1.3 1.3 0 .6.6 1.2 1.3 1.2z"/></symbol><symbol viewBox="0 0 100 100" id="icon-ui-arrow-up" xmlns="http://www.w3.org/2000/svg"><path fill="currentColor" d="M51.3 89.6V13.4l17.5 17.4c.5.5 1.3.5 1.8 0s.5-1.3 0-1.8L50.9 9.5s-.1 0-.1-.1h-.1s-.1 0-.1-.1h-.1-.1-.1-.1-.1-.1-.1-.1-.1-.1-.1-.1-.1-.1s-.1 0-.1.1H49s-.1 0-.1.1L29.5 29.1c-.2.2-.4.6-.4.9 0 .3.1.6.4.9.5.5 1.3.5 1.8 0l17.5-17.4v76.2c0 .7.6 1.3 1.3 1.3.6-.1 1.2-.7 1.2-1.4z"/></symbol><symbol viewBox="0 0 175 175" id="icon-ui-caret-down" xmlns="http://www.w3.org/2000/svg"><path fill="#231F20" d="M21.4 60.8l66.1 54.5 66.1-54.5-.9-1.1-65.2 53.8-65.2-53.8z"/></symbol><symbol viewBox="0 0 175 175" id="icon-ui-caret-left" xmlns="http://www.w3.org/2000/svg"><path fill="#231F20" d="M114.2 153.6L59.7 87.5l54.5-66.1 1.1.9-53.8 65.2 53.8 65.2z"/></symbol><symbol viewBox="0 0 175 175" id="icon-ui-caret-right" xmlns="http://www.w3.org/2000/svg"><path fill="#231F20" d="M60.8 153.6l54.5-66.1-54.5-66.1-1.1.9 53.8 65.2-53.8 65.2z"/></symbol><symbol viewBox="0 0 175 175" id="icon-ui-caret-up" xmlns="http://www.w3.org/2000/svg"><path fill="#231F20" d="M153.6 114.2L87.5 59.7l-66.1 54.5.9 1.1 65.2-53.8 65.2 53.8z"/></symbol><symbol viewBox="0 0 80 80" id="icon-youbtube-alt" xmlns="http://www.w3.org/2000/svg"><path fill="currentColor" d="M19.4 6.7h4L26.2 17l2.5-10.3h4L28.1 22v10.4h-4V22L19.4 6.7zm18.3 6.6c-3.1 0-5.2 2.1-5.2 5.1v9.3c0 3.3 1.7 5.1 5.2 5.1 2.8 0 5.1-1.9 5.1-5.1v-9.3c0-3-2.2-5.1-5.1-5.1zm1.5 14.2c0 1-.5 1.8-1.5 1.8s-1.5-.8-1.5-1.8v-8.8c0-1 .5-1.8 1.5-1.8 1.1 0 1.5.7 1.5 1.8v8.8zm13.2-14.1v14.4c-.4.5-1.4 1.4-2.1 1.4-.8 0-.9-.5-.9-1.3V13.4h-3.5v15.9c0 1.9.6 3.4 2.5 3.4 1.1 0 2.5-.6 4.1-2.4v2.1H56v-19h-3.6zm6.1 38.5c-1.2 0-1.5.9-1.5 2.1v1.8h3V54c-.1-1.2-.3-2.1-1.5-2.1zm-13.1.1c-.2.1-.5.3-.7.5v11.3c.3.3.5.5.8.6.5.3 1.3.3 1.7-.2.2-.3.3-.7.3-1.2v-9.3c0-.6-.1-1.1-.4-1.4-.3-.5-1.1-.6-1.7-.3zm13.4-14.4c-7.2-.5-30.7-.5-37.9 0-7.8.5-8.7 5.3-8.8 17.7.1 12.4 1 17.1 8.8 17.7 7.2.5 30.7.5 37.9 0 7.8-.5 8.7-5.3 8.8-17.7-.1-12.4-1-17.2-8.8-17.7zM24.6 67.3h-3.8v-21h-3.9v-3.6h11.6v3.6h-3.9v21zm13.5 0h-3.4v-2c-.6.7-1.3 1.3-1.9 1.7-1.8 1-4.3 1-4.3-2.7V49.2h3.4V63c0 .7.2 1.2.9 1.2s1.6-.8 2-1.4V49.2H38l.1 18.1zM51 63.5c0 2.2-.8 4-3.1 4-1.2 0-2.3-.4-3.2-1.6v1.4h-3.4V42.8h3.4v7.9c.8-.9 1.8-1.7 3-1.7 2.5 0 3.3 2.1 3.3 4.5v10zm12.4-4.8H57v3.4c0 1.4.1 2.5 1.5 2.5s1.5-1 1.5-2.5v-1.3h3.5v1.4c0 3.5-1.5 5.6-5 5.6-3.2 0-4.8-2.3-4.8-5.6v-8.1c0-3.1 2.1-5.3 5.1-5.3 3.2 0 4.8 2 4.8 5.3l-.2 4.6z"/></symbol><symbol viewBox="0 0 80 80" id="icon-youtube" xmlns="http://www.w3.org/2000/svg"><path fill="currentColor" d="M61.7 14.9c-10.3-.7-33.1-.7-43.4 0C7.2 15.7 5.9 22.4 5.8 40c.1 17.6 1.4 24.3 12.5 25.1 10.3.7 33.1.7 43.4 0 11.1-.8 12.4-7.5 12.5-25.1-.1-17.6-1.4-24.3-12.5-25.1zM31.5 51.4V28.6L54.2 40 31.5 51.4z"/></symbol></svg>