<?xml version="1.0" encoding="utf-8"?><!DOCTYPE svg PUBLIC "-//W3C//DTD SVG 1.1//EN" "http://www.w3.org/Graphics/SVG/1.1/DTD/svg11.dtd"><svg xmlns="http://www.w3.org/2000/svg" xmlns:xlink="http://www.w3.org/1999/xlink"><symbol viewBox="0 0 400 400" id="icon-social-facebook" xmlns="http://www.w3.org/2000/svg"><path d="M162.819 347.5h59.245V198.774h41.267l4.494-49.848h-45.762v-28.193c0-11.849 2.452-16.343 13.892-16.343h32.278V52.5h-41.267c-44.127 0-64.148 19.612-64.148 56.794v39.633h-31.053v50.256h31.053l.001 148.317z"/></symbol><symbol viewBox="0 0 80 80" id="icon-social-google-plus" xmlns="http://www.w3.org/2000/svg"><path d="M43.7 22.8l-6.5 6.5c-1.8-1.6-3.9-2.7-6.4-3.1-7.4-1.2-14.4 3.4-16 10.8-1.2 5.7.5 10.6 5 14.2 4.6 3.7 9.7 4 14.9 1.6 3-1.4 5-3.7 5.9-7 .1-.3.1-.6.2-1.1H28.4v-9h19.9c1.7 0 1.8 0 1.9 1.6.7 6.7-.4 13-4.9 18.3-4.3 5.5-10.4 7.7-17.3 7.5C16.5 62.7 7.6 55 5.7 43.7c-2.1-12.8 6.7-24.4 18.9-26.4 6.8-1.1 13 .4 18.4 4.8l.7.7zM61.8 42.9h-7.2v-5.7h7.2V30h5.7v7.1h7.2v5.8h-7.1V50h-5.7c-.1-2.3-.1-4.6-.1-7.1z"/></symbol><symbol viewBox="0 0 80 80" id="icon-social-instagram" xmlns="http://www.w3.org/2000/svg"><path d="M40 15.6c8 0 8.9 0 12 .2 2.9.1 4.5.6 5.5 1 1.5.5 2.4 1.2 3.5 2.2 1 1 1.7 2 2.2 3.4.4 1 .9 2.6 1 5.5.1 3.1.2 4.1.2 12s0 8.9-.2 12c-.1 2.9-.6 4.5-1 5.5C62.7 59 62 59.9 61 61c-1 1-2 1.7-3.4 2.2-1 .4-2.6.9-5.5 1-3.1.1-4.1.2-12 .2s-8.9 0-12-.2c-2.9-.1-4.5-.6-5.5-1C21 62.7 20.1 62 19 61c-1-1-1.7-2-2.2-3.4-.4-1-.9-2.6-1-5.5-.1-3.1-.2-4.1-.2-12s0-8.9.2-12c.1-2.9.6-4.5 1-5.5.5-1.6 1.2-2.5 2.2-3.6 1-1 2-1.7 3.4-2.2 1-.4 2.6-.9 5.5-1 3.2-.2 4.1-.2 12.1-.2m0-5.4c-8.1 0-9.1 0-12.3.2-3.2.1-5.3.6-7.2 1.4-2 .8-3.6 1.8-5.3 3.4-1.7 1.7-2.7 3.3-3.4 5.3-.7 1.9-1.2 4.1-1.4 7.2-.1 3.2-.2 4.2-.2 12.3 0 8.1 0 9.1.2 12.3.1 3.2.6 5.3 1.4 7.2.8 2 1.8 3.6 3.4 5.3 1.7 1.7 3.3 2.7 5.3 3.4 1.9.7 4.1 1.2 7.2 1.4 3.2.1 4.2.2 12.3.2s9.1 0 12.3-.2c3.2-.1 5.3-.6 7.2-1.4 2-.8 3.6-1.8 5.3-3.4 1.7-1.7 2.7-3.3 3.4-5.3.7-1.9 1.2-4.1 1.4-7.2.1-3.2.2-4.2.2-12.3s0-9.1-.2-12.3c-.1-3.2-.6-5.3-1.4-7.2-.8-2-1.8-3.6-3.4-5.3-1.7-1.7-3.3-2.7-5.3-3.4-1.9-.7-4.1-1.2-7.2-1.4-3.2-.1-4.2-.2-12.3-.2z"/><path d="M40 24.7c-8.4 0-15.3 6.8-15.3 15.3S31.6 55.3 40 55.3 55.3 48.4 55.3 40 48.4 24.7 40 24.7zm0 25.2c-5.5 0-9.9-4.4-9.9-9.9s4.4-9.9 9.9-9.9 9.9 4.4 9.9 9.9-4.4 9.9-9.9 9.9z"/><circle cx="55.9" cy="24.1" r="3.6"/></symbol><symbol viewBox="0 0 400 400" id="icon-social-linkedin" xmlns="http://www.w3.org/2000/svg"><path d="M318.164 61.288H81.746c-11.288 0-20.462 8.956-20.462 19.988v237.418c0 11.048 9.174 20.018 20.462 20.018h236.417c11.311 0 20.553-8.971 20.553-20.018V81.276c0-11.033-9.241-19.988-20.552-19.988zm-174.58 236.395h-41.188V165.296h41.188v132.387zm-20.582-150.491c-13.223 0-23.871-10.69-23.871-23.863 0-13.155 10.649-23.849 23.871-23.849 13.162 0 23.849 10.694 23.849 23.849-.001 13.174-10.687 23.863-23.849 23.863zm174.669 150.491h-41.113v-64.375c0-15.352-.293-35.107-21.38-35.107-21.418 0-24.684 16.722-24.684 33.993v65.488h-41.097V165.296h39.442v18.087h.564c5.486-10.411 18.92-21.384 38.937-21.384 41.632 0 49.331 27.413 49.331 63.069v72.615z"/></symbol><symbol viewBox="0 0 80 80" id="icon-social-pinterest" xmlns="http://www.w3.org/2000/svg"><path d="M23 44.9c.8.3 1.6 0 1.8-.9.2-.6.6-2.2.7-2.9.2-.9.1-1.2-.5-2-1.5-1.7-2.4-4-2.4-7.1 0-9.2 6.9-17.4 17.9-17.4 9.8 0 15.1 6 15.1 13.9 0 10.5-4.6 19.3-11.5 19.3-3.8 0-6.6-3.1-5.7-7 1.1-4.6 3.2-9.6 3.2-12.9 0-3-1.6-5.5-4.9-5.5-3.9 0-7 4-7 9.4 0 3.4 1.2 5.7 1.2 5.7s-4 16.8-4.7 19.8c-1.4 5.9-.2 13.1-.1 13.8.1.4.6.5.9.2.4-.5 5-6.2 6.6-11.9.4-1.6 2.6-10 2.6-10 1.3 2.4 4.9 4.5 8.9 4.5 11.7 0 19.6-10.6 19.6-24.9 0-10.8-9.1-20.8-23-20.8-17.3 0-26 12.4-26 22.7-.2 6.4 2.2 12 7.3 14z"/></symbol><symbol viewBox="0 0 80 80" id="icon-social-snapchat" xmlns="http://www.w3.org/2000/svg"><path d="M22.9 19.3c-1.7 3.7-1 10.4-.7 15.1-1.8 1-4.1-.8-5.4-.8-1.4 0-3 .9-3.2 2.2-.2 1 .2 2.4 3.3 3.6 1.2.5 4 1 4.7 2.6.9 2.2-4.7 12.2-13.7 13.7-.7.1-1.2.7-1.2 1.4.2 2.7 6.2 3.8 8.9 4.2.3.4.5 1.9.8 3.1.2.5.6 1.2 1.6 1.2 1.4 0 3.6-1.1 7.6-.4 3.9.6 7.5 6.2 14.5 6.2 6.5 0 10.4-5.5 14.1-6.2 2.2-.4 4-.2 6.1.2 1.4.3 2.7.4 3.1-1 .4-1.2.6-2.8.8-3.1 2.7-.4 8.8-1.5 8.9-4.2 0-.7-.5-1.3-1.2-1.4-8.5-1.5-14.3-11.5-13.4-13.7.7-1.5 3.5-2.1 4.7-2.6 2.3-.9 3.4-2 3.4-3.3 0-1.6-2-2.6-3.4-2.6-1.5 0-3.6 1.7-5.3.8.3-4.7.9-11.4-.7-15.1C54 12.2 47 8.6 40 8.6s-14 3.5-17.1 10.7z"/></symbol><symbol viewBox="0 0 80 80" id="icon-social-twitter" xmlns="http://www.w3.org/2000/svg"><path d="M5.1 61.9C11.4 66 19 68.3 27 68.3c26.6 0 41.6-22.5 40.7-42.6 2.8-2 5.2-4.5 7.1-7.4-2.6 1.1-5.3 1.9-8.2 2.3 3-1.8 5.2-4.6 6.3-7.9-2.8 1.6-5.8 2.8-9.1 3.5-2.6-2.8-6.3-4.5-10.5-4.5-9.2 0-16 8.6-13.9 17.6-11.8-.7-22.4-6.4-29.4-15-3.8 6.4-2 14.8 4.4 19.1-2.3-.1-4.6-.7-6.5-1.8-.2 6.6 4.6 12.8 11.5 14.2-2 .5-4.2.7-6.5.2 1.8 5.7 7.1 9.8 13.4 9.9-6 4.8-13.6 6.9-21.2 6z"/></symbol><symbol viewBox="0 0 80 80" id="icon-social-vimeo" xmlns="http://www.w3.org/2000/svg"><path d="M60.7 14.7c-8.1-.3-13.6 4.3-16.5 13.7 1.5-.6 2.9-1 4.3-1 3 0 4.3 1.7 3.9 5-.2 2-1.5 5-3.9 8.8C46 45.1 44.2 47 43 47c-1.6 0-3-3-4.3-8.9-.4-1.8-1.2-6.2-2.4-13.4-1.1-6.7-3.9-9.8-8.4-9.3-1.9.2-4.8 1.9-8.7 5.3-2.8 2.5-5.6 5.1-8.5 7.6l2.8 3.5c2.6-1.8 4.2-2.8 4.6-2.8 2 0 3.9 3.2 5.6 9.4 1.6 5.8 3.1 11.5 4.7 17.3 2.4 6.3 5.2 9.4 8.7 9.4 5.5 0 12.2-5.2 20.2-15.5C65 39.9 69 32.1 69.2 26.4c.4-7.6-2.5-11.5-8.5-11.7z"/></symbol><symbol viewBox="0 0 80 80" id="icon-social-youbtube-alt" xmlns="http://www.w3.org/2000/svg"><path d="M19.4 6.7h4L26.2 17l2.5-10.3h4L28.1 22v10.4h-4V22L19.4 6.7zm18.3 6.6c-3.1 0-5.2 2.1-5.2 5.1v9.3c0 3.3 1.7 5.1 5.2 5.1 2.8 0 5.1-1.9 5.1-5.1v-9.3c0-3-2.2-5.1-5.1-5.1zm1.5 14.2c0 1-.5 1.8-1.5 1.8s-1.5-.8-1.5-1.8v-8.8c0-1 .5-1.8 1.5-1.8 1.1 0 1.5.7 1.5 1.8v8.8zm13.2-14.1v14.4c-.4.5-1.4 1.4-2.1 1.4-.8 0-.9-.5-.9-1.3V13.4h-3.5v15.9c0 1.9.6 3.4 2.5 3.4 1.1 0 2.5-.6 4.1-2.4v2.1H56v-19h-3.6zm6.1 38.5c-1.2 0-1.5.9-1.5 2.1v1.8h3V54c-.1-1.2-.3-2.1-1.5-2.1zm-13.1.1c-.2.1-.5.3-.7.5v11.3c.3.3.5.5.8.6.5.3 1.3.3 1.7-.2.2-.3.3-.7.3-1.2v-9.3c0-.6-.1-1.1-.4-1.4-.3-.5-1.1-.6-1.7-.3zm13.4-14.4c-7.2-.5-30.7-.5-37.9 0-7.8.5-8.7 5.3-8.8 17.7.1 12.4 1 17.1 8.8 17.7 7.2.5 30.7.5 37.9 0 7.8-.5 8.7-5.3 8.8-17.7-.1-12.4-1-17.2-8.8-17.7zM24.6 67.3h-3.8v-21h-3.9v-3.6h11.6v3.6h-3.9v21zm13.5 0h-3.4v-2c-.6.7-1.3 1.3-1.9 1.7-1.8 1-4.3 1-4.3-2.7V49.2h3.4V63c0 .7.2 1.2.9 1.2s1.6-.8 2-1.4V49.2H38l.1 18.1zM51 63.5c0 2.2-.8 4-3.1 4-1.2 0-2.3-.4-3.2-1.6v1.4h-3.4V42.8h3.4v7.9c.8-.9 1.8-1.7 3-1.7 2.5 0 3.3 2.1 3.3 4.5v10zm12.4-4.8H57v3.4c0 1.4.1 2.5 1.5 2.5s1.5-1 1.5-2.5v-1.3h3.5v1.4c0 3.5-1.5 5.6-5 5.6-3.2 0-4.8-2.3-4.8-5.6v-8.1c0-3.1 2.1-5.3 5.1-5.3 3.2 0 4.8 2 4.8 5.3l-.2 4.6z"/></symbol><symbol viewBox="0 0 80 80" id="icon-social-youtube" xmlns="http://www.w3.org/2000/svg"><path d="M61.7 14.9c-10.3-.7-33.1-.7-43.4 0C7.2 15.7 5.9 22.4 5.8 40c.1 17.6 1.4 24.3 12.5 25.1 10.3.7 33.1.7 43.4 0 11.1-.8 12.4-7.5 12.5-25.1-.1-17.6-1.4-24.3-12.5-25.1zM31.5 51.4V28.6L54.2 40 31.5 51.4z"/></symbol><symbol viewBox="0 0 100 100" id="icon-ui-arrow-down" xmlns="http://www.w3.org/2000/svg"><path fill="currentColor" d="M48.7 10.4v76.2L31.3 69.1c-.5-.5-1.3-.5-1.8 0s-.5 1.3 0 1.8l19.6 19.6s.1 0 .1.1h.1s.1 0 .1.1H50.8s.1 0 .1-.1h.1s.1 0 .1-.1l19.6-19.6c.2-.2.4-.6.4-.9 0-.3-.1-.6-.4-.9-.5-.5-1.3-.5-1.8 0L51.3 86.6V10.4c0-.7-.6-1.3-1.3-1.3-.7 0-1.3.6-1.3 1.3z"/></symbol><symbol viewBox="0 0 100 100" id="icon-ui-arrow-left" xmlns="http://www.w3.org/2000/svg"><path fill="currentColor" d="M89.6 48.7H13.4l17.4-17.5c.5-.5.5-1.3 0-1.8s-1.3-.5-1.8 0L9.5 49.1s0 .1-.1.1v.1s0 .1-.1.1V50.8s0 .1.1.1v.1s0 .1.1.1l19.6 19.6c.2.2.6.4.9.4.3 0 .6-.1.9-.4.5-.5.5-1.3 0-1.8L13.4 51.3h76.2c.7 0 1.3-.6 1.3-1.3 0-.7-.6-1.3-1.3-1.3z"/></symbol><symbol viewBox="0 0 100 100" id="icon-ui-arrow-right" xmlns="http://www.w3.org/2000/svg"><path fill="currentColor" d="M10.4 51.3h76.2L69.1 68.7c-.5.5-.5 1.3 0 1.8s1.3.5 1.8 0l19.6-19.6s0-.1.1-.1v-.1s0-.1.1-.1v-.1-.1-.1-.1-.1-.1-.1-.1-.1-.1-.1-.1-.1-.1s0-.1-.1-.1V49s0-.1-.1-.1L70.9 29.5c-.2-.2-.6-.4-.9-.4-.3 0-.6.1-.9.4-.5.5-.5 1.3 0 1.8l17.4 17.5H10.4c-.7 0-1.3.6-1.3 1.3 0 .6.6 1.2 1.3 1.2z"/></symbol><symbol viewBox="0 0 100 100" id="icon-ui-arrow-up" xmlns="http://www.w3.org/2000/svg"><path fill="currentColor" d="M51.3 89.6V13.4l17.5 17.4c.5.5 1.3.5 1.8 0s.5-1.3 0-1.8L50.9 9.5s-.1 0-.1-.1h-.1s-.1 0-.1-.1h-.1-.1-.1-.1-.1-.1-.1-.1-.1-.1-.1-.1-.1-.1s-.1 0-.1.1H49s-.1 0-.1.1L29.5 29.1c-.2.2-.4.6-.4.9 0 .3.1.6.4.9.5.5 1.3.5 1.8 0l17.5-17.4v76.2c0 .7.6 1.3 1.3 1.3.6-.1 1.2-.7 1.2-1.4z"/></symbol><symbol viewBox="0 0 100 100" id="icon-ui-cancel" xmlns="http://www.w3.org/2000/svg"><path d="M77 21.2l-2 2-25.1 25.1-27-27c-.5-.5-1.3-.5-1.8 0-.4.5-.4 1.3.1 1.8l2 2 25 25-27 27c-.5.5-.5 1.3 0 1.8.5.4 1.3.4 1.8-.1l2-2 25-25 27.1 27.1c.5.5 1.3.5 1.8 0 .4-.5.4-1.3-.1-1.8l-2-2L51.7 50l27.1-27.1c.5-.5.5-1.3 0-1.8-.5-.4-1.3-.4-1.8.1z"/></symbol><symbol viewBox="0 0 175 175" id="icon-ui-caret-down" xmlns="http://www.w3.org/2000/svg"><path fill="#231F20" d="M21.4 60.8l66.1 54.5 66.1-54.5-.9-1.1-65.2 53.8-65.2-53.8z"/></symbol><symbol viewBox="0 0 175 175" id="icon-ui-caret-left" xmlns="http://www.w3.org/2000/svg"><path fill="#231F20" d="M114.2 153.6L59.7 87.5l54.5-66.1 1.1.9-53.8 65.2 53.8 65.2z"/></symbol><symbol viewBox="0 0 175 175" id="icon-ui-caret-right" xmlns="http://www.w3.org/2000/svg"><path fill="#231F20" d="M60.8 153.6l54.5-66.1-54.5-66.1-1.1.9 53.8 65.2-53.8 65.2z"/></symbol><symbol viewBox="0 0 175 175" id="icon-ui-caret-up" xmlns="http://www.w3.org/2000/svg"><path fill="#231F20" d="M153.6 114.2L87.5 59.7l-66.1 54.5.9 1.1 65.2-53.8 65.2 53.8z"/></symbol><symbol viewBox="0 0 80 80" id="icon-ui-email" xmlns="http://www.w3.org/2000/svg"><path d="M70.5 19.1c.5-.5.4-.9-.4-.9H9.9c-.7 0-.8.4-.4.9L39 48.6c.5.5 1.3.5 1.8 0l29.7-29.5zM55.8 39.2c-.5.5-.5 1.3 0 1.8l17.4 17.2c.5.5.8.4.8-.4V22.2c0-.7-.4-.9-.8-.4L55.8 39.2z"/><path d="M42.2 52.8c-.5.5-1.3 1.1-1.7 1.5h-1c-.5-.4-1.2-1-1.7-1.5l-9.1-9.1c-.5-.5-1.3-.5-1.8 0L9.6 60.8c-.5.5-.4.9.4.9h60c.7 0 .8-.4.4-.9L53.1 43.5c-.5-.5-1.3-.5-1.8 0l-9.1 9.3zM6.8 21.8c-.4-.5-.8-.4-.8.4v35.6c0 .7.4.9.8.4L24.2 41c.5-.5.5-1.3 0-1.8L6.8 21.8z"/></symbol><symbol viewBox="0 0 175 175" id="icon-ui-grid-view" xmlns="http://www.w3.org/2000/svg"><path d="M61.8 40H46.4c-3.5 0-6.4 2.9-6.4 6.4v15.4c0 3.5 2.9 6.4 6.4 6.4h15.4c3.5 0 6.4-2.9 6.4-6.4V46.4c0-3.5-2.8-6.4-6.4-6.4zM95.2 40H79.8c-3.5 0-6.4 2.9-6.4 6.4v15.4c0 3.5 2.9 6.4 6.4 6.4h15.4c3.5 0 6.4-2.9 6.4-6.4V46.4c0-3.5-2.9-6.4-6.4-6.4zM128.6 40h-15.4c-3.5 0-6.4 2.9-6.4 6.4v15.4c0 3.5 2.9 6.4 6.4 6.4h15.4c3.5 0 6.4-2.9 6.4-6.4V46.4c0-3.5-2.9-6.4-6.4-6.4zM61.8 73.4H46.4c-3.5 0-6.4 2.9-6.4 6.4v15.4c0 3.5 2.9 6.4 6.4 6.4h15.4c3.5 0 6.4-2.9 6.4-6.4V79.8c0-3.5-2.8-6.4-6.4-6.4zM95.2 73.4H79.8c-3.5 0-6.4 2.9-6.4 6.4v15.4c0 3.5 2.9 6.4 6.4 6.4h15.4c3.5 0 6.4-2.9 6.4-6.4V79.8c0-3.5-2.9-6.4-6.4-6.4zM128.6 73.4h-15.4c-3.5 0-6.4 2.9-6.4 6.4v15.4c0 3.5 2.9 6.4 6.4 6.4h15.4c3.5 0 6.4-2.9 6.4-6.4V79.8c0-3.5-2.9-6.4-6.4-6.4z"/><path d="M61.8 73.4H46.4c-3.5 0-6.4 2.9-6.4 6.4v15.4c0 3.5 2.9 6.4 6.4 6.4h15.4c3.5 0 6.4-2.9 6.4-6.4V79.8c0-3.5-2.8-6.4-6.4-6.4zM95.2 73.4H79.8c-3.5 0-6.4 2.9-6.4 6.4v15.4c0 3.5 2.9 6.4 6.4 6.4h15.4c3.5 0 6.4-2.9 6.4-6.4V79.8c0-3.5-2.9-6.4-6.4-6.4zM128.6 73.4h-15.4c-3.5 0-6.4 2.9-6.4 6.4v15.4c0 3.5 2.9 6.4 6.4 6.4h15.4c3.5 0 6.4-2.9 6.4-6.4V79.8c0-3.5-2.9-6.4-6.4-6.4zM95.2 106.8H79.8c-3.5 0-6.4 2.9-6.4 6.4v15.4c0 3.5 2.9 6.4 6.4 6.4h15.4c3.5 0 6.4-2.9 6.4-6.4v-15.4c0-3.6-2.9-6.4-6.4-6.4zM128.6 106.8h-15.4c-3.5 0-6.4 2.9-6.4 6.4v15.4c0 3.5 2.9 6.4 6.4 6.4h15.4c3.5 0 6.4-2.9 6.4-6.4v-15.4c0-3.6-2.9-6.4-6.4-6.4z"/><path d="M95.2 106.8H79.8c-3.5 0-6.4 2.9-6.4 6.4v15.4c0 3.5 2.9 6.4 6.4 6.4h15.4c3.5 0 6.4-2.9 6.4-6.4v-15.4c0-3.6-2.9-6.4-6.4-6.4zM128.6 106.8h-15.4c-3.5 0-6.4 2.9-6.4 6.4v15.4c0 3.5 2.9 6.4 6.4 6.4h15.4c3.5 0 6.4-2.9 6.4-6.4v-15.4c0-3.6-2.9-6.4-6.4-6.4zM61.8 73.4H46.4c-3.5 0-6.4 2.9-6.4 6.4v15.4c0 3.5 2.9 6.4 6.4 6.4h15.4c3.5 0 6.4-2.9 6.4-6.4V79.8c0-3.5-2.8-6.4-6.4-6.4zM61.8 106.8H46.4c-3.5 0-6.4 2.9-6.4 6.4v15.4c0 3.5 2.9 6.4 6.4 6.4h15.4c3.5 0 6.4-2.9 6.4-6.4v-15.4c0-3.6-2.8-6.4-6.4-6.4z"/></symbol><symbol viewBox="0 0 175 175" id="icon-ui-list-view" xmlns="http://www.w3.org/2000/svg"><path d="M50.9 46.5H37.6c-3 0-5.5 2.5-5.5 5.5v13.3c0 3 2.5 5.5 5.5 5.5h13.3c3 0 5.5-2.5 5.5-5.5V52c.1-3-2.4-5.5-5.5-5.5zM50.9 75.3H37.6c-3 0-5.5 2.5-5.5 5.5v13.3c0 3 2.5 5.5 5.5 5.5h13.3c3 0 5.5-2.5 5.5-5.5V80.9c.1-3.1-2.4-5.6-5.5-5.6zM50.9 104.1H37.6c-3 0-5.5 2.5-5.5 5.5V123c0 3 2.5 5.5 5.5 5.5h13.3c3 0 5.5-2.5 5.5-5.5v-13.3c.1-3.1-2.4-5.6-5.5-5.6zM137.4 46.5h-71c-3 0-5.5 2.5-5.5 5.5v13.3c0 3 2.5 5.5 5.5 5.5h70.9c3 0 5.5-2.5 5.5-5.5V52c.1-3-2.4-5.5-5.4-5.5zM137.4 75.3h-71c-3 0-5.5 2.5-5.5 5.5v13.3c0 3 2.5 5.5 5.5 5.5h70.9c3 0 5.5-2.5 5.5-5.5V80.9c.1-3.1-2.4-5.6-5.4-5.6zM137.4 104.1h-71c-3 0-5.5 2.5-5.5 5.5V123c0 3 2.5 5.5 5.5 5.5h70.9c3 0 5.5-2.5 5.5-5.5v-13.3c.1-3.1-2.4-5.6-5.4-5.6z"/></symbol><symbol viewBox="0 0 100 100" id="icon-ui-magnify" xmlns="http://www.w3.org/2000/svg"><path d="M54 38.5c-.2-.9-1-1.7-2-1.7H40.6V25.5c0-1.1-.9-1.9-1.9-1.9h-.2c-.9.2-1.7 1-1.7 2V37H25.4c-1.1 0-1.9.9-1.9 1.9v.2c.2.9 1 1.7 2 1.7h11.4v11.4c0 1.1.9 1.9 1.9 1.9h.2c.9-.2 1.7-1 1.7-2V40.7h11.4c1.1 0 1.9-.9 1.9-1.9v-.3z"/><path d="M87 83.1L59.2 55.3c3.7-4.5 5.9-10.3 5.9-16.5 0-14.5-11.8-26.3-26.3-26.3S12.5 24.3 12.5 38.8s11.8 26.3 26.3 26.3c6.3 0 12-2.2 16.5-5.9L83.1 87c.8.8 2.4.6 3.4-.5 1.1-1.1 1.3-2.6.5-3.4zM38.8 59.6C27.3 59.6 18 50.3 18 38.8S27.3 18 38.8 18s20.8 9.3 20.8 20.8-9.3 20.8-20.8 20.8z"/></symbol><symbol viewBox="0 0 400 400" id="icon-ui-map-marker" xmlns="http://www.w3.org/2000/svg"><path d="M199 55c-44.279 0-80.177 35.899-80.177 80.177S199 341 199 341s80.177-161.541 80.177-205.823S243.281 55 199 55zm0 115.764c-19.651 0-35.584-15.936-35.584-35.584 0-19.654 15.933-35.584 35.584-35.584 19.654 0 35.584 15.93 35.584 35.584.003 19.648-15.93 35.584-35.584 35.584z"/></symbol><symbol viewBox="0 0 18 18" id="icon-ui-media-airplay" xmlns="http://www.w3.org/2000/svg"><path d="M16 1H2a1 1 0 0 0-1 1v10a1 1 0 0 0 1 1h3v-2H3V3h12v8h-2v2h3a1 1 0 0 0 1-1V2a1 1 0 0 0-1-1z"/><path d="M4 17h10l-5-6z"/></symbol><symbol viewBox="0 0 18 18" id="icon-ui-media-cc-off" xmlns="http://www.w3.org/2000/svg"><path d="M1 1c-.6 0-1 .4-1 1v11c0 .6.4 1 1 1h4.6l2.7 2.7c.2.2.4.3.7.3.3 0 .5-.1.7-.3l2.7-2.7H17c.6 0 1-.4 1-1V2c0-.6-.4-1-1-1H1zm4.52 10.15c1.99 0 3.01-1.32 3.28-2.41l-1.29-.39c-.19.66-.78 1.45-1.99 1.45-1.14 0-2.2-.83-2.2-2.34 0-1.61 1.12-2.37 2.18-2.37 1.23 0 1.78.75 1.95 1.43l1.3-.41C8.47 4.96 7.46 3.76 5.5 3.76c-1.9 0-3.61 1.44-3.61 3.7 0 2.26 1.65 3.69 3.63 3.69zm7.57 0c1.99 0 3.01-1.32 3.28-2.41l-1.29-.39c-.19.66-.78 1.45-1.99 1.45-1.14 0-2.2-.83-2.2-2.34 0-1.61 1.12-2.37 2.18-2.37 1.23 0 1.78.75 1.95 1.43l1.3-.41c-.28-1.15-1.29-2.35-3.25-2.35-1.9 0-3.61 1.44-3.61 3.7 0 2.26 1.65 3.69 3.63 3.69z" fill-rule="evenodd" fill-opacity=".5"/></symbol><symbol viewBox="0 0 18 18" id="icon-ui-media-cc-on" xmlns="http://www.w3.org/2000/svg"><path d="M1 1c-.6 0-1 .4-1 1v11c0 .6.4 1 1 1h4.6l2.7 2.7c.2.2.4.3.7.3.3 0 .5-.1.7-.3l2.7-2.7H17c.6 0 1-.4 1-1V2c0-.6-.4-1-1-1H1zm4.52 10.15c1.99 0 3.01-1.32 3.28-2.41l-1.29-.39c-.19.66-.78 1.45-1.99 1.45-1.14 0-2.2-.83-2.2-2.34 0-1.61 1.12-2.37 2.18-2.37 1.23 0 1.78.75 1.95 1.43l1.3-.41C8.47 4.96 7.46 3.76 5.5 3.76c-1.9 0-3.61 1.44-3.61 3.7 0 2.26 1.65 3.69 3.63 3.69zm7.57 0c1.99 0 3.01-1.32 3.28-2.41l-1.29-.39c-.19.66-.78 1.45-1.99 1.45-1.14 0-2.2-.83-2.2-2.34 0-1.61 1.12-2.37 2.18-2.37 1.23 0 1.78.75 1.95 1.43l1.3-.41c-.28-1.15-1.29-2.35-3.25-2.35-1.9 0-3.61 1.44-3.61 3.7 0 2.26 1.65 3.69 3.63 3.69z" fill-rule="evenodd"/></symbol><symbol viewBox="0 0 18 18" id="icon-ui-media-enter-fullscreen" xmlns="http://www.w3.org/2000/svg"><path d="M10 3h3.6l-4 4L11 8.4l4-4V8h2V1h-7zM7 9.6l-4 4V10H1v7h7v-2H4.4l4-4z"/></symbol><symbol viewBox="0 0 18 18" id="icon-ui-media-exit-fullscreen" xmlns="http://www.w3.org/2000/svg"><path d="M1 12h3.6l-4 4L2 17.4l4-4V17h2v-7H1zM16 .6l-4 4V1h-2v7h7V6h-3.6l4-4z"/></symbol><symbol viewBox="0 0 18 18" id="icon-ui-media-fast-forward" xmlns="http://www.w3.org/2000/svg"><path d="M7.875 7.171L0 1v16l7.875-6.171V17L18 9 7.875 1z"/></symbol><symbol viewBox="0 0 18 18" id="icon-ui-media-muted" xmlns="http://www.w3.org/2000/svg"><path d="M12.4 12.5l2.1-2.1 2.1 2.1 1.4-1.4L15.9 9 18 6.9l-1.4-1.4-2.1 2.1-2.1-2.1L11 6.9 13.1 9 11 11.1zM3.786 6.008H.714C.286 6.008 0 6.31 0 6.76v4.512c0 .452.286.752.714.752h3.072l4.071 3.858c.5.3 1.143 0 1.143-.602V2.752c0-.601-.643-.977-1.143-.601L3.786 6.008z"/></symbol><symbol viewBox="0 0 18 18" id="icon-ui-media-pause" xmlns="http://www.w3.org/2000/svg"><path d="M6 1H3c-.6 0-1 .4-1 1v14c0 .6.4 1 1 1h3c.6 0 1-.4 1-1V2c0-.6-.4-1-1-1zm6 0c-.6 0-1 .4-1 1v14c0 .6.4 1 1 1h3c.6 0 1-.4 1-1V2c0-.6-.4-1-1-1h-3z"/></symbol><symbol viewBox="0 0 18 18" id="icon-ui-media-pip" xmlns="http://www.w3.org/2000/svg"><path d="M13.293 3.293L7.022 9.564l1.414 1.414 6.271-6.271L17 7V1h-6z"/><path d="M13 15H3V5h5V3H2a1 1 0 0 0-1 1v12a1 1 0 0 0 1 1h12a1 1 0 0 0 1-1v-6h-2v5z"/></symbol><symbol viewBox="0 0 18 18" id="icon-ui-media-play" xmlns="http://www.w3.org/2000/svg"><path d="M15.562 8.1L3.87.225c-.818-.562-1.87 0-1.87.9v15.75c0 .9 1.052 1.462 1.87.9L15.563 9.9c.584-.45.584-1.35 0-1.8z"/></symbol><symbol viewBox="0 0 18 18" id="icon-ui-media-restart" xmlns="http://www.w3.org/2000/svg"><path d="M9.7 1.2l.7 6.4 2.1-2.1c1.9 1.9 1.9 5.1 0 7-.9 1-2.2 1.5-3.5 1.5-1.3 0-2.6-.5-3.5-1.5-1.9-1.9-1.9-5.1 0-7 .6-.6 1.4-1.1 2.3-1.3l-.6-1.9C6 2.6 4.9 3.2 4 4.1 1.3 6.8 1.3 11.2 4 14c1.3 1.3 3.1 2 4.9 2 1.9 0 3.6-.7 4.9-2 2.7-2.7 2.7-7.1 0-9.9L16 1.9l-6.3-.7z"/></symbol><symbol viewBox="0 0 18 18" id="icon-ui-media-rewind" xmlns="http://www.w3.org/2000/svg"><path d="M10.125 1L0 9l10.125 8v-6.171L18 17V1l-7.875 6.171z"/></symbol><symbol viewBox="0 0 18 18" id="icon-ui-media-settings" xmlns="http://www.w3.org/2000/svg"><path d="M16.135 7.784a2 2 0 0 1-1.23-2.969c.322-.536.225-.998-.094-1.316l-.31-.31c-.318-.318-.78-.415-1.316-.094a2 2 0 0 1-2.969-1.23C10.065 1.258 9.669 1 9.219 1h-.438c-.45 0-.845.258-.997.865a2 2 0 0 1-2.969 1.23c-.536-.322-.999-.225-1.317.093l-.31.31c-.318.318-.415.781-.093 1.317a2 2 0 0 1-1.23 2.969C1.26 7.935 1 8.33 1 8.781v.438c0 .45.258.845.865.997a2 2 0 0 1 1.23 2.969c-.322.536-.225.998.094 1.316l.31.31c.319.319.782.415 1.316.094a2 2 0 0 1 2.969 1.23c.151.607.547.865.997.865h.438c.45 0 .845-.258.997-.865a2 2 0 0 1 2.969-1.23c.535.321.997.225 1.316-.094l.31-.31c.318-.318.415-.781.094-1.316a2 2 0 0 1 1.23-2.969c.607-.151.865-.547.865-.997v-.438c0-.451-.26-.846-.865-.997zM9 12a3 3 0 1 1 0-6 3 3 0 0 1 0 6z"/></symbol><symbol viewBox="0 0 18 18" id="icon-ui-media-volume" xmlns="http://www.w3.org/2000/svg"><path d="M15.6 3.3c-.4-.4-1-.4-1.4 0-.4.4-.4 1 0 1.4C15.4 5.9 16 7.4 16 9c0 1.6-.6 3.1-1.8 4.3-.4.4-.4 1 0 1.4.2.2.5.3.7.3.3 0 .5-.1.7-.3C17.1 13.2 18 11.2 18 9s-.9-4.2-2.4-5.7z"/><path d="M11.282 5.282a.909.909 0 0 0 0 1.316c.735.735.995 1.458.995 2.402 0 .936-.425 1.917-.995 2.487a.909.909 0 0 0 0 1.316c.145.145.636.262 1.018.156a.725.725 0 0 0 .298-.156C13.773 11.733 14.13 10.16 14.13 9c0-.17-.002-.34-.011-.51-.053-.992-.319-2.005-1.522-3.208a.909.909 0 0 0-1.316 0zm-7.496.726H.714C.286 6.008 0 6.31 0 6.76v4.512c0 .452.286.752.714.752h3.072l4.071 3.858c.5.3 1.143 0 1.143-.602V2.752c0-.601-.643-.977-1.143-.601L3.786 6.008z"/></symbol><symbol viewBox="0 0 100 100" id="icon-ui-plus" xmlns="http://www.w3.org/2000/svg"><path d="M89.5 48.7H51.2V10.5c0-.7-.6-1.3-1.3-1.3-.6.1-1.2.7-1.2 1.4V48.8H10.5c-.7 0-1.3.6-1.3 1.3.1.6.7 1.2 1.4 1.2H48.8v38.3c0 .7.6 1.3 1.3 1.3.6-.1 1.2-.7 1.2-1.4V51.2h38.3c.7 0 1.3-.6 1.3-1.3-.1-.6-.7-1.2-1.4-1.2z"/></symbol><symbol viewBox="0 0 100 100" id="icon-ui-search" xmlns="http://www.w3.org/2000/svg"><path d="M87 83.1L59.2 55.3c3.7-4.5 5.9-10.3 5.9-16.5 0-14.5-11.8-26.3-26.3-26.3S12.5 24.3 12.5 38.8s11.8 26.3 26.3 26.3c6.3 0 12-2.2 16.5-5.9L83.1 87c.8.8 2.4.6 3.4-.5 1.1-1.1 1.3-2.6.5-3.4zM38.8 59.6C27.3 59.6 18 50.3 18 38.8S27.3 18 38.8 18s20.8 9.3 20.8 20.8-9.3 20.8-20.8 20.8z"/></symbol><symbol viewBox="0 0 200 200" id="icon-ui-settings" xmlns="http://www.w3.org/2000/svg"><path d="M109.7 172H90c-1.7 0-3.4-.6-4.7-1.6-1.4-1.2-2.3-2.7-2.5-4.5L80.7 152c-1.4-.5-2.7-1-3.9-1.6l-10.5 7.9c-1.3 1.1-2.9 1.7-4.7 1.7-1.9 0-3.6-.7-5-2.1-7.7-7-12.7-12-15.1-15.5-.9-1.3-1.4-2.8-1.4-4.4 0-1.5.5-3.1 1.5-4.4.9-1.3 2.4-3.3 4.6-6 1.3-1.6 2.4-3 3.2-4.2-.8-1.6-1.4-3.2-2-4.8l-13.8-2c-1.8-.3-3.4-1.2-4.5-2.6-1-1.3-1.5-2.9-1.5-4.5V89.8c0-1.5.5-3.1 1.5-4.4 1.4-1.9 3-2.5 4.2-2.7h.1l14.1-2.1c.5-1.4 1.1-2.8 1.8-4.2-2.1-2.9-4.8-6.3-7.9-10.1-1.5-1.8-1.8-3.5-1.8-4.7 0-1.4.5-2.9 1.5-4.3 1.7-2.4 4.7-5.7 9.2-10.1 6.4-6.3 8.9-7.5 11.2-7.5 1.7 0 3.3.6 4.7 1.7l10.3 8c1.3-.6 2.6-1.1 3.9-1.6.9-6.9 1.6-11.7 2.4-14.6.9-3.4 3.5-5.5 7.1-5.5h19.7c1.7 0 3.4.6 4.7 1.6 1.4 1.2 2.3 2.7 2.5 4.5l2.1 13.8c1.4.5 2.7 1 3.9 1.6l10.5-7.9c1.3-1.1 2.9-1.7 4.7-1.7 1.7 0 3.4.6 4.8 1.8l.2.1c7.8 7.2 12.8 12.3 15.1 15.6.7.9 1.4 2.3 1.4 4.4 0 1.5-.5 3.1-1.5 4.4-.9 1.3-2.4 3.3-4.6 6-1.3 1.6-2.4 3-3.3 4.2.7 1.6 1.4 3.1 2 4.7L166 83c1.8.3 3.3 1.2 4.4 2.6 1 1.3 1.5 2.9 1.5 4.5v19.7c0 1.5-.5 3.1-1.5 4.4-1.1 1.5-2.6 2.5-4.4 2.7l-14.1 2.1c-.6 1.5-1.1 2.8-1.7 4.1 2 2.7 4.6 6 7.9 10.1 1.2 1.4 1.8 3 1.8 4.8 0 1.7-.6 3.2-1.7 4.5-1.8 2.4-4.7 5.6-9.1 9.9-6.3 6.2-8.9 7.5-11.2 7.5-1.5 0-3-.5-4.5-1.4l-.3-.2-10.3-8c-1.3.6-2.6 1.1-3.9 1.6-.9 6.9-1.6 11.7-2.4 14.6-.6 3.4-3.3 5.5-6.8 5.5zm-19.1-8h18.5c.7-2.9 1.5-8.1 2.3-15.5l.3-2.6 2.5-.8c2.6-.8 5.1-1.9 7.4-3.1l2.3-1.2 14 10.9c.8-.5 2.5-1.8 5.7-5 3.9-3.8 6.6-6.8 8.1-8.8-4.2-5.1-7.3-9.2-9.4-12.2l-1.4-2 1.2-2.2c1.1-2 2.2-4.5 3.2-7.5l.8-2.3L164 109V90.8L146.1 88l-.7-2.4c-.8-2.6-1.9-5.3-3.4-8l-1.1-2.2 1.4-2c1.1-1.5 2.7-3.7 4.9-6.4 1.9-2.4 3.3-4.3 4.2-5.5-1.5-2-5-6-13.4-13.7l-14.3 10.8-2.2-1.1c-2.2-1.1-4.7-2.2-7.4-3l-2.3-.8-2.7-18H90.5c-.7 2.9-1.5 8.1-2.3 15.5l-.3 2.6-2.5.8c-2.5.8-5.1 1.9-7.4 3.1l-2.3 1.2-14-10.9c-.8.5-2.5 1.8-5.7 5-3.9 3.8-6.6 6.8-8.1 8.7 3.9 4.7 7 8.8 9.4 12.1l1.4 2-1.2 2.2c-1.3 2.5-2.4 5-3.1 7.4l-.7 2.4-18 2.7V109l18 2.6.7 2.5c.7 2.6 1.9 5.3 3.3 8l1.2 2.2-1.5 2c-1.1 1.5-2.7 3.6-4.9 6.4-2 2.5-3.4 4.3-4.2 5.5 2.2 2.9 6.7 7.5 13.5 13.6L75.9 141l2.2 1.1c2.2 1.1 4.7 2.2 7.4 3l2.3.8 2.8 18.1zm46.8-11.9zm-89.9-90zm13.8-14.5zm.9-.1zm37.6 79c-7.3 0-13.7-2.6-18.9-7.8-5.2-5.2-7.8-11.6-7.8-18.9 0-7.3 2.6-13.7 7.8-18.9 5.2-5.2 11.6-7.8 18.9-7.8 7.3 0 13.7 2.6 18.9 7.8 5.2 5.2 7.8 11.6 7.8 18.9s-2.6 13.7-7.8 18.9c-5.2 5.2-11.5 7.8-18.9 7.8zm0-45.4c-5.2 0-9.5 1.8-13.2 5.5-3.7 3.7-5.5 8-5.5 13.2 0 5.2 1.8 9.5 5.5 13.2 3.7 3.7 8 5.5 13.2 5.5 5.2 0 9.5-1.8 13.2-5.5 3.7-3.7 5.5-8 5.5-13.2 0-5.2-1.8-9.5-5.5-13.2-3.6-3.7-8-5.5-13.2-5.5z"/></symbol><symbol viewBox="0 0 80 80" id="icon-ui-share" xmlns="http://www.w3.org/2000/svg"><path fill="currentColor" d="M54.2 43.9c-3.3 0-6.2 1.6-8 4l-10.7-5.2c.2-.9.4-1.7.4-2.7 0-.9-.1-1.8-.4-2.7l10.7-5.2c1.8 2.4 4.7 4 8 4 5.5 0 10-4.5 10-10s-4.5-10-10-10-10 4.5-10 10c0 .9.1 1.8.4 2.7L33.8 34c-1.8-2.4-4.7-4-8-4-5.5 0-10 4.5-10 10s4.5 10 10 10c3.3 0 6.2-1.6 8-4l10.7 5.2c-.2.9-.4 1.7-.4 2.7 0 5.5 4.5 10 10 10s10-4.5 10-10-4.4-10-9.9-10zm0-24.1c3.5 0 6.3 2.8 6.3 6.3s-2.8 6.3-6.3 6.3-6.3-2.8-6.3-6.3 2.8-6.3 6.3-6.3zm0 40.4c-3.5 0-6.3-2.8-6.3-6.3s2.8-6.3 6.3-6.3 6.3 2.8 6.3 6.3-2.8 6.3-6.3 6.3z"/></symbol><symbol viewBox="0 0 100 100" id="icon-ui-share-alt" xmlns="http://www.w3.org/2000/svg"><g class="bqshare-symbol"><path class="bqbox-border bqleft" d="M18 89.6c-.8 0-1.5-.7-1.5-1.5V35.6c0-.8.7-1.5 1.5-1.5s1.5.7 1.5 1.5v52.5c0 .8-.7 1.5-1.5 1.5z"/><path class="bqbox-border bqright" d="M82 89.6c-.8 0-1.5-.7-1.5-1.5V35.6c0-.8.7-1.5 1.5-1.5s1.5.7 1.5 1.5v52.5c0 .8-.7 1.5-1.5 1.5z"/><path class="bqbox-border bqtop-left" d="M39.3 37.1H18c-.8 0-1.5-.7-1.5-1.5s.7-1.5 1.5-1.5h21.3c.8 0 1.5.7 1.5 1.5s-.7 1.5-1.5 1.5z"/><path class="bqbox-border bqtop-right" d="M82 37.1H60.7c-.8 0-1.5-.7-1.5-1.5s.7-1.5 1.5-1.5H82c.8 0 1.5.7 1.5 1.5s-.7 1.5-1.5 1.5z"/><path class="bqbox-border bqbottom" d="M82 89.6H18c-.8 0-1.5-.7-1.5-1.5s.7-1.5 1.5-1.5h64c.8 0 1.5.7 1.5 1.5s-.7 1.5-1.5 1.5z"/><path class="bqarrow" d="M67.5 27.3L51.1 10.8s-.1 0-.1-.1l-.1-.1h-.1c-.1 0-.1-.1-.2-.1h-.1c-.1 0-.1 0-.2-.1h-.6c-.1 0-.1 0-.2.1h-.1c-.1 0-.2.1-.2.1-.1.1-.2.1-.2.2L32.5 27.3c-.6.6-.6 1.5 0 2.1s1.5.6 2.1 0l13.9-13.9v50.6c0 .8.7 1.5 1.5 1.5s1.5-.7 1.5-1.5V15.5l13.9 13.9c.3.3.7.4 1.1.4s.8-.1 1.1-.4c.5-.6.5-1.5-.1-2.1z"/></g><g class="bqcancel-symbol"><path class="bqline-one" d="M48.5 82V18c0-.8.7-1.5 1.5-1.5s1.5.7 1.5 1.5v64c0 .8-.7 1.5-1.5 1.5s-1.5-.7-1.5-1.5z"/><path class="bqline-two" d="M51.5 82V18c0-.8-.7-1.5-1.5-1.5s-1.5.7-1.5 1.5v64c0 .8.7 1.5 1.5 1.5s1.5-.7 1.5-1.5z"/></g></symbol></svg>