<?xml version="1.0" encoding="utf-8"?>
<!-- Generator: Adobe Illustrator 22.1.0, SVG Export Plug-In . SVG Version: 6.00 Build 0)  -->
<svg version="1.1" id="Layer_1" xmlns="http://www.w3.org/2000/svg" xmlns:xlink="http://www.w3.org/1999/xlink" x="0px" y="0px"
	 viewBox="0 0 100 100" style="enable-background:new 0 0 100 100;" xml:space="preserve">

<g class="share-symbol">
	
	<path class="box-border left" d="M18,89.6c-0.8,0-1.5-0.7-1.5-1.5V35.6c0-0.8,0.7-1.5,1.5-1.5s1.5,0.7,1.5,1.5v52.5C19.5,88.9,18.8,89.6,18,89.6z"/>
	<path class="box-border right" d="M82,89.6c-0.8,0-1.5-0.7-1.5-1.5V35.6c0-0.8,0.7-1.5,1.5-1.5s1.5,0.7,1.5,1.5v52.5C83.5,88.9,82.8,89.6,82,89.6z"/>
	<path class="box-border top-left" d="M39.3,37.1H18c-0.8,0-1.5-0.7-1.5-1.5s0.7-1.5,1.5-1.5h21.3c0.8,0,1.5,0.7,1.5,1.5S40.1,37.1,39.3,37.1z"/>
	<path class="box-border top-right" d="M82,37.1H60.7c-0.8,0-1.5-0.7-1.5-1.5s0.7-1.5,1.5-1.5H82c0.8,0,1.5,0.7,1.5,1.5S82.8,37.1,82,37.1z"/>
	<path class="box-border bottom" d="M82,89.6H18c-0.8,0-1.5-0.7-1.5-1.5s0.7-1.5,1.5-1.5h64c0.8,0,1.5,0.7,1.5,1.5S82.8,89.6,82,89.6z"/>
	<path class="arrow" d="M67.5,27.3L51.1,10.8c0,0-0.1,0-0.1-0.1c0,0-0.1-0.1-0.1-0.1c0,0-0.1,0-0.1,0c-0.1,0-0.1-0.1-0.2-0.1c0,0-0.1,0-0.1,0
		c-0.1,0-0.1,0-0.2-0.1c-0.1,0-0.2,0-0.3,0c0,0,0,0,0,0s0,0,0,0c0,0,0,0,0,0c-0.1,0-0.2,0-0.3,0c-0.1,0-0.1,0-0.2,0.1c0,0,0,0-0.1,0
		c-0.1,0-0.2,0.1-0.2,0.1c0,0,0,0,0,0c-0.1,0.1-0.2,0.1-0.2,0.2L32.5,27.3c-0.6,0.6-0.6,1.5,0,2.1s1.5,0.6,2.1,0l13.9-13.9v50.6
		c0,0.8,0.7,1.5,1.5,1.5s1.5-0.7,1.5-1.5V15.5l13.9,13.9c0.3,0.3,0.7,0.4,1.1,0.4s0.8-0.1,1.1-0.4C68.1,28.8,68.1,27.9,67.5,27.3z"/>

</g>

<g class="cancel-symbol">
	<path class="line-one" d="M48.5,82V18c0-0.8,0.7-1.5,1.5-1.5s1.5,0.7,1.5,1.5v64c0,0.8-0.7,1.5-1.5,1.5S48.5,82.8,48.5,82z"/>
	<path class="line-two" d="M51.5,82V18c0-0.8-0.7-1.5-1.5-1.5s-1.5,0.7-1.5,1.5v64c0,0.8,0.7,1.5,1.5,1.5S51.5,82.8,51.5,82z"/>
</g>

</svg>
